<svg viewBox="0 0 100 100" xmlns="http://www.w3.org/2000/svg" fill="#0f81c7">
  <path d="M79.4,71.3c-2.3,0-4.3,1.9-4.3,4.3c0,2.4,1.9,4.3,4.3,4.3c2.4,0,4.3-1.9,4.3-4.3C83.7,73.2,81.8,71.3,79.4,71.3z      M79.4,79.3c-2.1,0-3.8-1.7-3.8-3.8s1.7-3.8,3.8-3.8c2.1,0,3.8,1.7,3.8,3.8S81.5,79.3,79.4,79.3z"></path>
  <path d="M19.8,71.3c-2.3,0-4.3,1.9-4.3,4.3c0,2.4,1.9,4.3,4.3,4.3s4.3-1.9,4.3-4.3C24,73.2,22.1,71.3,19.8,71.3z M19.8,79.3     c-2.1,0-3.8-1.7-3.8-3.8s1.7-3.8,3.8-3.8s3.8,1.7,3.8,3.8S21.8,79.3,19.8,79.3z"></path>
  <path d="M96.2,68.6L96.2,68.6c-0.2-0.1-0.3-0.2-0.3-0.3c0-0.5,0.1-2.4,0.2-2.9c0-0.1,0-0.2,0-0.3l0,0l-0.9-3.6     c0,0-17.4-11.2-18.3-11.3c-2.2-0.1-10.3-0.7-12.2-0.7c-6.9,0-21.1-0.1-21.1-0.1l-18.2,9.9c-0.6,0.2-13.3,2.2-17.6,3     c-1.6,0.3-3.4,0.2-4.5,1.9C3.2,64.4,3,65,2.7,65.6c-1.2,2.8,0,6.1,2.7,7.6c3.2,1.7,6.9,3.7,6.9,3.8c0.6,3.5,3.7,6.3,7.4,6.3     c3.6,0,6.6-2.5,7.3-5.9h45c0.8,3.3,3.8,5.9,7.3,5.9c3.5,0,6.5-2.5,7.3-5.8h0c0.5-0.3,8-2.4,8-2.4c1.1-0.1,2.8-4.1,3-4.8     C97.9,69.8,96.2,68.6,96.2,68.6z M3.3,68.4c-1.6-0.6,0.7-4.3,0.8-4.5c0.3-0.4,0.6-0.5,1-0.1C4.9,64.5,3.8,67.4,3.3,68.4z      M7.9,68.5H3.7c0.4-1,1.5-4.1,1.8-4.5c0.2-0.2,2.1-0.5,2.5-0.4V68.5z M41.6,51.1c0.4-0.2,0.9,0.1,0.8,0.6     c-0.7,2.9-13.6,8.2-14.1,8.4c-0.7,0.2-2.2-0.5-2.2-0.6L41.6,51.1z M19.8,82.2c-3.6,0-6.5-2.9-6.5-6.5c0-3.6,2.9-6.5,6.5-6.5     c3.6,0,6.5,2.9,6.5,6.5C26.3,79.3,23.4,82.2,19.8,82.2z M57.3,64.4c-0.7,0-1.3-0.2-1.7-0.4H59C58.7,64.3,58,64.4,57.3,64.4z      M55.6,63.5c0.3-0.2,0.9-0.4,1.7-0.4c0.8,0,1.4,0.2,1.7,0.4H55.6z M59.1,60.5c0,0-24.5,0.2-25.8,0.3c-0.7,0,7.8-6,10.1-7.8     c0.7-0.6,1.5-0.9,2.4-0.9c3.1,0,12.3,0,14,0C59.8,52.4,59.1,60.5,59.1,60.5z M63.8,60.3H62c-0.2,0-0.3-0.1-0.3-0.3     c0-0.2,0.1-0.3,0.3-0.3h1.7c0.2,0,0.3,0.1,0.3,0.3C64,60.2,63.9,60.3,63.8,60.3z M79.4,82.2c-3.6,0-6.5-2.9-6.5-6.5     c0-3.6,2.9-6.5,6.5-6.5c3.6,0,6.5,2.9,6.5,6.5C86,79.3,83,82.2,79.4,82.2z M86.3,60.1l-20.7,0.4l-1.2-8.7c0,0,11.8-0.1,13.2,0.4     c1.4,0.5,6.6,4.6,9.2,6.6C87.3,59.3,87,60.1,86.3,60.1z M94.6,68.6h-0.8l0-3.1h0.8V68.6z M95.5,68.6h-0.3v-3.1h0.4     C95.6,66.5,95.5,67.8,95.5,68.6z M95.9,65.1c0,0-0.4,0-0.5,0c-0.1,0-0.3,0-0.5,0c-0.1-0.7-0.7-3.7-1-3.9c0.2,0.1,0.9,0.5,1.1,0.6     L95.9,65.1L95.9,65.1z"></path>
</svg>